<svg xmlns="http://www.w3.org/2000/svg" fill="none" viewBox="0 0 14 14" height="14" width="14"><g id="ringing-bell-notification--notification-vibrate-ring-sound-alarm-alert-bell-noise"><path id="Union" fill="#f6f6f6" fill-rule="evenodd" d="M3.763 0.313a0.75 0.75 0 0 1 -0.172 1.046A5.02 5.02 0 0 0 1.5 5.433a0.75 0.75 0 1 1 -1.5 0A6.52 6.52 0 0 1 2.716 0.14a0.75 0.75 0 0 1 1.047 0.172Zm0.055 2.255A4.5 4.5 0 0 1 11.5 5.75v3.5a1 1 0 0 0 1 1 0.5 0.5 0 0 1 0 1h-11a0.5 0.5 0 0 1 0 -1 1 1 0 0 0 1 -1v-3.5a4.5 4.5 0 0 1 1.318 -3.182ZM5.25 13.25A0.75 0.75 0 0 1 6 12.5h2A0.75 0.75 0 0 1 8 14H6a0.75 0.75 0 0 1 -0.75 -0.75ZM11.284 0.14a0.75 0.75 0 1 0 -0.875 1.22A5.02 5.02 0 0 1 12.5 5.432a0.75 0.75 0 1 0 1.5 0A6.52 6.52 0 0 0 11.284 0.14Z" clip-rule="evenodd" stroke-width="1"></path></g></svg>