<svg xmlns="http://www.w3.org/2000/svg" fill="none" viewBox="0 0 14 14" height="14" width="14"><g id="user-multiple-group--close-geometric-human-multiple-person-up-user"><path id="Union" fill="#ffffff" fill-rule="evenodd" d="M8 4.5a3 3 0 1 1 -6 0 3 3 0 0 1 6 0Zm-3 4a5 5 0 0 0 -5 5 0.5 0.5 0 0 0 0.5 0.5h9a0.5 0.5 0 0 0 0.5 -0.5 5 5 0 0 0 -5 -5Zm8.5 5.5h-2.322c0.047 -0.158 0.072 -0.326 0.072 -0.5a6.24 6.24 0 0 0 -2.492 -4.994A5 5 0 0 1 14 13.5a0.5 0.5 0 0 1 -0.5 0.5ZM9 7.5a3 3 0 0 1 -0.868 -0.127A4.235 4.235 0 0 0 9.25 4.5a4.235 4.235 0 0 0 -1.118 -2.873A3 3 0 1 1 9 7.5Z" clip-rule="evenodd" stroke-width="1"></path></g></svg>